<?xml version="1.0" standalone="no"?>
<!DOCTYPE svg PUBLIC "-//W3C//DTD SVG 20010904//EN"
 "http://www.w3.org/TR/2001/REC-SVG-20010904/DTD/svg10.dtd">
<svg version="1.0" xmlns="http://www.w3.org/2000/svg"
 width="1536.000000pt" height="1024.000000pt" viewBox="0 0 1536.000000 1024.000000"
 preserveAspectRatio="xMidYMid meet">

<g transform="translate(0.000000,1024.000000) scale(0.100000,-0.100000)"
fill="#000000" stroke="none">
<path d="M2222 4420 c0 -14 2 -19 5 -12 2 6 2 18 0 25 -3 6 -5 1 -5 -13z"/>
<path d="M2223 4315 c0 -27 2 -38 4 -22 2 15 2 37 0 50 -2 12 -4 0 -4 -28z"/>
<path d="M2123 4275 c0 -22 2 -30 4 -17 2 12 2 30 0 40 -3 9 -5 -1 -4 -23z"/>
<path d="M4227 4119 c-3 -12 0 -22 9 -26 8 -3 11 -9 8 -14 -3 -5 0 -9 5 -9 6
0 11 4 11 9 0 4 10 6 23 4 18 -4 23 0 24 19 2 18 0 20 -7 7 -8 -13 -19 -15
-62 -10 -3 1 -4 10 -1 21 3 11 3 20 0 20 -2 0 -7 -9 -10 -21z"/>
<path d="M4192 4100 c0 -14 2 -19 5 -12 2 6 2 18 0 25 -3 6 -5 1 -5 -13z"/>
<path d="M4227 4053 c-10 -10 -8 -23 4 -23 5 0 7 6 3 13 -5 8 -2 8 9 -2 15
-12 17 -11 17 3 0 16 -21 22 -33 9z"/>
<path d="M4167 4031 c-10 -14 -10 -14 4 -4 9 7 18 10 21 7 3 -3 8 -1 12 4 9
16 -24 9 -37 -7z"/>
</g>
</svg>
