<?xml version="1.0" encoding="UTF-8"?>
<svg width="180px" height="40px" viewBox="0 0 180 40" version="1.1" xmlns="http://www.w3.org/2000/svg" xmlns:xlink="http://www.w3.org/1999/xlink">
    <title>Digimaatwerk Logo</title>
    <g id="Digimaatwerk-Logo" stroke="none" stroke-width="1" fill="none" fill-rule="evenodd">
        <g id="Logo" fill="#0F172A" fill-rule="nonzero">
            <path d="M20,0 C31.0457,0 40,8.9543 40,20 C40,31.0457 31.0457,40 20,40 C8.9543,40 0,31.0457 0,20 C0,8.9543 8.9543,0 20,0 Z M20,4 C11.1634,4 4,11.1634 4,20 C4,28.8366 11.1634,36 20,36 C28.8366,36 36,28.8366 36,20 C36,11.1634 28.8366,4 20,4 Z M20,12 C24.4183,12 28,15.5817 28,20 C28,24.4183 24.4183,28 20,28 C15.5817,28 12,24.4183 12,20 C12,15.5817 15.5817,12 20,12 Z" id="Logo-Circle"></path>
            <path d="M56.392,12.448 L60.824,12.448 L60.824,28 L56.392,28 L56.392,12.448 Z M58.616,10.448 C57.7813,10.448 57.096,10.1707 56.56,9.616 C56.024,9.06133 55.756,8.39467 55.756,7.616 C55.756,6.83733 56.024,6.17067 56.56,5.616 C57.096,5.06133 57.7813,4.784 58.616,4.784 C59.4507,4.784 60.136,5.05067 60.672,5.584 C61.208,6.11733 61.476,6.77333 61.476,7.552 C61.476,8.36267 61.208,9.05067 60.672,9.616 C60.136,10.1707 59.4507,10.448 58.616,10.448 Z M64.12,12.448 L68.552,12.448 L68.552,28 L64.12,28 L64.12,12.448 Z M66.344,10.448 C65.5093,10.448 64.824,10.1707 64.288,9.616 C63.752,9.06133 63.484,8.39467 63.484,7.616 C63.484,6.83733 63.752,6.17067 64.288,5.616 C64.824,5.06133 65.5093,4.784 66.344,4.784 C67.1787,4.784 67.864,5.05067 68.4,5.584 C68.936,6.11733 69.204,6.77333 69.204,7.552 C69.204,8.36267 68.936,9.05067 68.4,9.616 C67.864,10.1707 67.1787,10.448 66.344,10.448 Z M80.56,12.448 L80.56,15.952 L73.448,15.952 L73.448,12.448 L80.56,12.448 Z M75.08,9.296 L79.512,9.296 L79.512,23.312 C79.512,23.7867 79.5867,24.1387 79.736,24.368 C79.8853,24.5867 80.1573,24.72 80.56,24.768 C80.7893,24.8053 81.1307,24.832 81.584,24.848 L81.584,28 C79.8133,28.1493 78.4693,28.064 77.552,27.744 C76.6347,27.424 75.9893,26.896 75.616,26.16 C75.2533,25.424 75.08,24.4907 75.08,23.36 L75.08,9.296 Z M90.872,12.192 C92.5573,12.192 94.008,12.528 95.224,13.2 C96.44,13.872 97.368,14.8267 98.008,16.064 C98.648,17.3013 98.968,18.7573 98.968,20.432 C98.968,22.0853 98.648,23.5307 98.008,24.768 C97.368,26.0053 96.44,26.96 95.224,27.632 C94.008,28.304 92.5573,28.64 90.872,28.64 C89.1867,28.64 87.736,28.304 86.52,27.632 C85.304,26.96 84.376,26.0053 83.736,24.768 C83.096,23.5307 82.776,22.0853 82.776,20.432 C82.776,18.7573 83.096,17.3013 83.736,16.064 C84.376,14.8267 85.304,13.872 86.52,13.2 C87.736,12.528 89.1867,12.192 90.872,12.192 Z M90.872,15.952 C89.784,15.952 88.888,16.3573 88.184,17.168 C87.48,17.9787 87.128,19.0667 87.128,20.432 C87.128,21.7973 87.48,22.8853 88.184,23.696 C88.888,24.5067 89.784,24.912 90.872,24.912 C91.9493,24.912 92.84,24.5067 93.544,23.696 C94.248,22.8853 94.6,21.7973 94.6,20.432 C94.6,19.0667 94.248,17.9787 93.544,17.168 C92.84,16.3573 91.9493,15.952 90.872,15.952 Z M110.632,12.448 L110.632,28 L106.312,28 L106.312,26.352 C105.832,27.0667 105.176,27.6187 104.344,28.008 C103.528,28.3973 102.6,28.592 101.56,28.592 C100.259,28.592 99.096,28.2987 98.072,27.712 C97.048,27.1147 96.2507,26.2667 95.672,25.168 C95.0933,24.0693 94.804,22.7947 94.804,21.344 L94.804,12.448 L99.22,12.448 L99.22,20.672 C99.22,21.9093 99.5347,22.8693 100.164,23.552 C100.793,24.2347 101.64,24.576 102.704,24.576 C103.8,24.576 104.664,24.2347 105.294,23.552 C105.923,22.8693 106.238,21.9093 106.238,20.672 L106.238,12.448 L110.632,12.448 Z M115.72,12.448 L120.152,12.448 L120.152,28 L115.72,28 L115.72,12.448 Z M117.944,10.448 C117.109,10.448 116.424,10.1707 115.888,9.616 C115.352,9.06133 115.084,8.39467 115.084,7.616 C115.084,6.83733 115.352,6.17067 115.888,5.616 C116.424,5.06133 117.109,4.784 117.944,4.784 C118.779,4.784 119.464,5.05067 120,5.584 C120.536,6.11733 120.804,6.77333 120.804,7.552 C120.804,8.36267 120.536,9.05067 120,9.616 C119.464,10.1707 118.779,10.448 117.944,10.448 Z M133.664,12.448 L133.664,16.016 L131.984,16.016 C131.077,16.016 130.435,16.208 130.056,16.592 C129.677,16.976 129.488,17.648 129.488,18.608 L129.488,28 L125.056,28 L125.056,12.448 L129.304,12.448 L129.304,14.72 C129.752,13.9093 130.331,13.296 131.04,12.88 C131.749,12.4533 132.571,12.24 133.504,12.24 C133.525,12.24 133.589,12.24 133.696,12.24 C133.813,12.2293 133.888,12.224 133.92,12.224 L133.664,12.448 Z M142.832,12.192 C144.517,12.192 145.968,12.528 147.184,13.2 C148.4,13.872 149.328,14.8267 149.968,16.064 C150.608,17.3013 150.928,18.7573 150.928,20.432 C150.928,22.0853 150.608,23.5307 149.968,24.768 C149.328,26.0053 148.4,26.96 147.184,27.632 C145.968,28.304 144.517,28.64 142.832,28.64 C141.147,28.64 139.696,28.304 138.48,27.632 C137.264,26.96 136.336,26.0053 135.696,24.768 C135.056,23.5307 134.736,22.0853 134.736,20.432 C134.736,18.7573 135.056,17.3013 135.696,16.064 C136.336,14.8267 137.264,13.872 138.48,13.2 C139.696,12.528 141.147,12.192 142.832,12.192 Z M142.832,15.952 C141.744,15.952 140.848,16.3573 140.144,17.168 C139.44,17.9787 139.088,19.0667 139.088,20.432 C139.088,21.7973 139.44,22.8853 140.144,23.696 C140.848,24.5067 141.744,24.912 142.832,24.912 C143.909,24.912 144.8,24.5067 145.504,23.696 C146.208,22.8853 146.56,21.7973 146.56,20.432 C146.56,19.0667 146.208,17.9787 145.504,17.168 C144.8,16.3573 143.909,15.952 142.832,15.952 Z M157.864,12.192 C159.165,12.192 160.349,12.4853 161.416,13.072 C162.493,13.648 163.341,14.496 163.96,15.616 C164.579,16.736 164.888,18.0267 164.888,19.488 L164.888,28 L160.472,28 L160.472,19.84 C160.472,18.624 160.157,17.6747 159.528,16.992 C158.899,16.3093 158.035,15.968 156.936,15.968 C155.837,15.968 154.957,16.3093 154.296,16.992 C153.645,17.6747 153.32,18.624 153.32,19.84 L153.32,28 L148.904,28 L148.904,12.448 L153.224,12.448 L153.224,14.096 C153.725,13.3707 154.397,12.8187 155.24,12.432 C156.083,12.0347 156.995,11.84 157.976,11.84 L157.864,12.192 Z M173.448,28.608 C172.019,28.608 170.685,28.3227 169.448,27.752 C168.211,27.1707 167.235,26.3813 166.52,25.384 C165.805,24.3867 165.4,23.28 165.304,22.064 L169.976,22.064 C170.072,22.8 170.387,23.3947 170.92,23.848 C171.453,24.3013 172.104,24.528 172.872,24.528 C173.576,24.528 174.131,24.3813 174.536,24.088 C174.952,23.784 175.16,23.392 175.16,22.912 C175.16,22.368 174.915,21.968 174.424,21.712 C173.933,21.4453 173.16,21.1573 172.104,20.848 C170.963,20.5387 170,20.2293 169.216,19.92 C168.432,19.6107 167.757,19.1307 167.192,18.48 C166.627,17.8293 166.344,16.9547 166.344,15.856 C166.344,14.8907 166.611,14.016 167.144,13.232 C167.688,12.4373 168.451,11.8053 169.432,11.336 C170.424,10.8667 171.576,10.632 172.888,10.632 C174.797,10.632 176.325,11.1227 177.48,12.104 C178.645,13.0747 179.32,14.4 179.504,16.08 L175.064,16.08 C174.989,15.3867 174.707,14.8427 174.216,14.448 C173.736,14.0427 173.107,13.84 172.328,13.84 C171.667,13.84 171.155,13.9733 170.792,14.24 C170.44,14.496 170.264,14.8587 170.264,15.328 C170.264,15.8933 170.52,16.304 171.032,16.56 C171.544,16.816 172.328,17.0827 173.384,17.36 C174.493,17.6693 175.435,17.9893 176.208,18.32 C176.981,18.6507 177.645,19.1413 178.2,19.792 C178.765,20.432 179.059,21.2907 179.08,22.368 C179.08,23.3547 178.803,24.24 178.248,25.024 C177.704,25.7973 176.931,26.4053 175.928,26.848 C174.936,27.2907 173.784,27.512 172.472,27.512 L173.448,28.608 Z" id="Digimaatwerk-Text"></path>
        </g>
    </g>
</svg>