<?xml version="1.0" encoding="UTF-8" standalone="no"?>
<svg width="400" height="120" viewBox="0 0 400 120" fill="none" xmlns="http://www.w3.org/2000/svg">
  <!-- Server/document icon -->
  <rect x="40" y="30" width="60" height="60" rx="2" stroke="#42ADE2" stroke-width="4" fill="none"/>
  
  <!-- Lines in server -->
  <line x1="50" y1="45" x2="90" y2="45" stroke="#42ADE2" stroke-width="3"/>
  <line x1="50" y1="60" x2="90" y2="60" stroke="#42ADE2" stroke-width="3"/>
  <line x1="50" y1="75" x2="90" y2="75" stroke="#42ADE2" stroke-width="3"/>
  
  <!-- Circuit lines -->
  <path d="M100 50 L125 50 L125 70 A15 15 0 0 0 140 85" stroke="#42ADE2" stroke-width="4" fill="none"/>
  
  <!-- Gear circle -->
  <circle cx="150" cy="85" r="15" stroke="#42ADE2" stroke-width="4" fill="none"/>
  
  <!-- Gear teeth -->
  <circle cx="150" cy="60" r="5" fill="#42ADE2"/>
  <circle cx="172" cy="85" r="5" fill="#42ADE2"/>
  
  <!-- Digimaatwerk text -->
  <path d="M200 40 h15 q10 0 15 5 t5 15 v20 q0 10 -5 15 t-15 5 h-15 v-60 z" fill="white"/>
  <path d="M250 40 v60 h5 v-25 h5 q5 0 7.5 2.5 t2.5 7.5 v15 h5 v-15 q0 -10 -10 -12 q10 -2 10 -12 v-8 q0 -5 -5 -10 t-15 -3 h-5 z" fill="white"/>
  <path d="M290 40 h5 v25 q0 10 10 10 t10 -10 v-25 h5 v25 q0 15 -15 15 t-15 -15 v-25 z" fill="white"/>
  <path d="M330 40 v60 h5 v-60 z" fill="white"/>
  <path d="M345 40 v60 h5 v-60 z" fill="white"/>
  <path d="M360 40 v60 h5 v-20 l15 20 h7 l-17 -25 l17 -35 h-7 l-15 30 v-30 z" fill="white"/>
  <path d="M395 40 h5 v25 q0 10 -10 10 t-10 -10 v-25 h5 v25 q0 5 5 5 t5 -5 v-25 z" fill="white"/>
  <path d="M410 40 v60 h5 v-25 q0 -5 5 -5 t5 5 v25 h5 v-25 q0 -5 5 -5 t5 5 v25 h5 v-25 q0 -10 -10 -10 q-5 0 -7.5 2.5 q-2.5 -2.5 -7.5 -2.5 q-10 0 -10 10 v-25 z" fill="white"/>
  <path d="M455 40 v60 h5 v-30 l15 30 h7 l-17 -30 q17 0 17 -15 t-17 -15 h-10 z" fill="white"/>
  <path d="M490 40 v60 h5 v-20 l15 20 h7 l-17 -25 l17 -35 h-7 l-15 30 v-30 z" fill="white"/>
</svg>